<svg xmlns="http://www.w3.org/2000/svg" viewBox="-12 6 1098 470" role="img" aria-label="Oscine">
  <defs>
    <mask id="eye">
      <rect x="-12" y="6" width="1098" height="470" fill="#fff"></rect>
      <circle cx="179.04" cy="259.66" r="21" fill="#000"></circle>
    </mask>
  </defs>
  <g mask="url(#eye)">
    <path fill="currentColor" d="M308.04,193.66c-.91-6.25,0-17.2,2-24s3.6-9.89,10-17c21.44-23.83,23.31-21.41,28-26,2.36-2.31-21,2.2-33,7s-24.19,9.8-39,22c-6.04,4.97-4.76,3.15-3.31-.92,2.09-5.88,7.09-12.57,11.6-17.56,5.22-5.78,9.91-9.02,19.71-17.52s22.2-17.7,32-24,22.2-11,27-14,6-3.8,2-4c-8.77-.27-17.53.74-26,3-17.04,4.1-33.75,9.44-50,16-15.5,6.8-35.3,21-43,25s-5.8,3-3-1,11.3-14.7,20-23c8.7-8.3,18.5-17,32-27s34.5-24,49-33,35.2-17.8,38-21-6.2-1.8-21,2c-22.95,6.03-45.64,13.04-68,21-19.3,7.3-33.7,15.2-48,23-13.08,7.33-25.76,15.34-38,24-11.2,7.7-15.3,9.5-29,22s-40.3,39-53,53-17.3,22.2-23,31-11,16.3-11,22,4.5,7.3,11,12,21.47,13.57,28,16c5.72,2.13,3,1.5,11-1s28.5-11.8,37-14,5.7-2.3,14,1,27.3,15,36,19,14.2,3.3,16,5-.7,3.2-5,5-15.8,2.2-21,6-3.7,10.5-10,17-22.3,8.8-28,22-3.5,42.5-6,57c-1.24,10.45-4.29,20.6-9,30-5.89,13.66-13.62,26.45-23,38-10,11.2-30.93,20.9-37,29-1.88,2.5-2.5,4.3,0,19,4.17,23.17,9.17,46.19,15,69,4.8,17.3,6.7,21.5,14,35,8.79,16.09,18.82,31.47,30,46,10.31,12.62,21.69,24.33,34,35,9.37,8.15,19.41,15.51,30,22,10.5,6.8,16.2,11.8,33,19,16.8,7.2,54,19.7,68,24s20,6.2,16,2-29.5-19.2-40-27-15.3-12.5-23-20-15-14.3-23-25-18.2-25.8-25-39c-6.49-12.84-11.84-26.23-16-40-3.12-10.77-5.13-21.82-6-33-1.32-11.28-1.66-22.66-1-34,.61-10.23,2.62-20.32,6-30,3.7-10.8,9.3-24.7,16-35,6.64-10.12,14.72-19.22,24-27,9.2-7.8,19.8-14.8,31-20s24.8-9,36-11,18.5-2.7,31-1,31,6,44,11,23.2,11.7,34,19,26.8,22.8,31,25-1.3-5.5-6-12-10.3-14.8-22-27-38-32.5-48-46-7.91-20.47-12-35-15.66-44-19.16-52c-12.19-34.01-24.61-43.87-34.11-57.64M390.04,412.66c-2.2-1-8.2-3.7-13-5s-7.8-2.5-16-3-24.3-.7-33,0-12.5,1.8-19,4c-6.4,2.13-13.07,5.13-20,9-7,4-17,11.2-22,15s-4.2,3-8,8-10.8,14.5-15,22-7.7,15.8-10,23-3.5,9-4,20-1.3,31,1,46,8.5,32.2,13,44,10.2,20.5,14,27c3.8,6.5,9.3,15.2,9,12s-8.3-22.2-11-31-3.7-14.2-5-22-2.7-16.8-3-25c-.29-14.11,1.05-28.2,4-42,1.97-8.43,4.31-16.77,7-25,2.2-6.2,2.5-6.5,6-12s9.7-14.7,15-21c5.4-6.4,11.07-12.07,17-17,5.54-4.65,11.58-8.67,18-12,14.3-7.55,29.92-12.31,46-14,8.8-.8,24.2.2,29,0s2.2,0,0-1M137.04,316.66c.2-1.7.36-1.19-1-2-4.07-2.43-19.58-8.05-25-10-1.55-.56-2.12-.91-8,0-14.7,2.27-65.8,11-80,14-10.37,3.06-9.3,2.63-5.64,4.46,1.92.96,4.25,2.2,12.64,5.54,8.44,3.36,29.3,10.2,39,13,9.7,2.8,13,3.2,19,4s11.2,1,17,1,13,2.7,18-1,9.7-16.2,12-21,1.8-6.3,2-8M139.04,304.66c-3.8-5.2-15.5-22.2-23-29s-17.5-9.2-22-12-3.8-1.8-5-5-2.11-11.12-2-14,1.7-4.2-2-3c-7.07,2.46-13.79,5.82-20,10-11.56,7.57-22.58,15.92-33,25-9.5,8.7-18.8,20.5-24,27-3.16,3.46-5.54,7.55-7,12-1.66,4.42-1.76,3.8,3,2,6.24-2.35,20.2-7.5,36-11s46.7-8.3,59-10,8.3-1.7,15,0,18.01,6.3,21.85,8.43c3.51,1.95,4.33,2.41,3.15-.43M310.04,275.66c1.3,2.7,5,9.7,6,16s.5,16.3,0,22-1.2,7.3-3,12-5.2,11.5-8,16c-2.54,4.02-5.56,7.72-9,11-3.5,3.5-4.5,5.8-12,10-10.73,5.58-21.74,10.58-33,15-7.5,2.8-10,2.3-12,2s-2.5-2.2,0-4,9.2-3.3,15-7c15.81-9.78,29.42-22.71,40-38,5-7.3,7.8-15.3,10-21s2.3-7.3,3-13,.5-17.5,1-21,.7-2.7,2,0"></path>
    <path fill="none" stroke="currentColor" stroke-width="14" stroke-linecap="round" stroke-linejoin="round" d="M316.61,221.2c30.56,35.61,95.58,45.46,117.58,48.46,6.6-20.9,13.7-129.7,27.8-114.3s41.8,230.7,57,206.7S538-1.54,553.7,11.36s43.4,400.7,59.5,428c16.2,27.2,21.7-243.8,37.4-264.7s39.2,157.1,56.7,139.3c17.4-17.9,29.1-261.6,48.1-246.2s47,321.5,65.9,338.6,29.5-225.9,47.5-236.1,42.7,164.7,60.3,174.9c17.7,10.2,25.8-102.5,45.5-113.7s55.9,39.2,72.7,46.7,23.7-1.7,28.4-2"></path>
  </g>
</svg>