<svg xmlns="http://www.w3.org/2000/svg" viewBox="300 466 708 182" role="img" aria-label="Oscine">
  <g fill="#ef382f">
    <path d="M370.38,473.06c11.84,0,22.46,2.22,31.86,6.66,9.4,4.44,17.35,10.43,23.87,17.98,6.51,7.55,11.51,16.35,14.98,26.42,3.48,10.07,5.22,20.72,5.22,31.97s-1.74,22.13-5.22,32.19c-3.48,10.07-8.47,18.87-14.98,26.42-6.51,7.55-14.47,13.51-23.87,17.87-9.4,4.36-20.02,6.55-31.86,6.55s-22.46-2.19-31.86-6.55c-9.4-4.36-17.35-10.32-23.86-17.87-6.51-7.55-11.51-16.35-14.99-26.42-3.48-10.06-5.22-20.79-5.22-32.19s1.74-21.9,5.22-31.97c3.48-10.06,8.47-18.87,14.99-26.42,6.51-7.55,14.46-13.54,23.86-17.98,9.4-4.44,20.01-6.66,31.86-6.66ZM370.38,495.71c-8.44,0-15.73,1.7-21.87,5.11-6.14,3.41-11.14,7.96-14.99,13.65-3.85,5.7-6.7,12.17-8.55,19.42-1.85,7.25-2.77,14.65-2.77,22.2s.92,14.95,2.77,22.2c1.85,7.25,4.7,13.73,8.55,19.42,3.85,5.7,8.84,10.25,14.99,13.65,6.14,3.41,13.43,5.11,21.87,5.11s15.72-1.7,21.87-5.11c6.14-3.4,11.13-7.95,14.98-13.65,3.85-5.7,6.69-12.17,8.55-19.42,1.85-7.25,2.78-14.65,2.78-22.2s-.93-14.95-2.78-22.2c-1.85-7.25-4.7-13.73-8.55-19.42-3.85-5.7-8.85-10.25-14.98-13.65-6.14-3.4-13.43-5.11-21.87-5.11Z"></path>
    <path d="M487.15,598.49c.74,7.4,3.55,12.58,8.44,15.54,4.88,2.96,10.73,4.44,17.54,4.44,2.37,0,5.07-.18,8.1-.55,3.03-.37,5.88-1.07,8.55-2.11,2.66-1.03,4.85-2.55,6.55-4.55,1.7-2,2.48-4.62,2.33-7.88-.15-3.25-1.33-5.92-3.55-7.99-2.22-2.07-5.07-3.74-8.55-5-3.48-1.26-7.44-2.33-11.88-3.22s-8.96-1.85-13.54-2.89c-4.74-1.03-9.29-2.29-13.65-3.77-4.37-1.48-8.29-3.48-11.77-5.99-3.48-2.51-6.25-5.73-8.33-9.66-2.07-3.92-3.11-8.77-3.11-14.54,0-6.22,1.52-11.43,4.55-15.65,3.03-4.22,6.88-7.62,11.54-10.21,4.66-2.59,9.84-4.4,15.54-5.44,5.7-1.03,11.13-1.55,16.32-1.55,5.92,0,11.58.63,16.98,1.89,5.4,1.26,10.28,3.3,14.65,6.11,4.36,2.81,7.99,6.48,10.88,10.99,2.89,4.52,4.7,9.96,5.44,16.32h-26.42c-1.19-6.07-3.96-10.14-8.33-12.21-4.37-2.07-9.36-3.11-14.98-3.11-1.78,0-3.89.15-6.33.44-2.44.3-4.74.85-6.88,1.67-2.15.82-3.96,2-5.44,3.55-1.48,1.55-2.22,3.59-2.22,6.11,0,3.11,1.07,5.63,3.22,7.55,2.14,1.92,4.96,3.52,8.44,4.77,3.48,1.26,7.44,2.33,11.88,3.22,4.44.89,9.03,1.85,13.76,2.89,4.59,1.04,9.1,2.3,13.54,3.77,4.44,1.48,8.4,3.48,11.88,5.99,3.48,2.52,6.29,5.7,8.44,9.55,2.14,3.85,3.22,8.59,3.22,14.21,0,6.81-1.55,12.58-4.66,17.32-3.11,4.74-7.14,8.58-12.1,11.54-4.96,2.96-10.47,5.11-16.54,6.44-6.07,1.33-12.06,2-17.98,2-7.25,0-13.95-.82-20.09-2.44-6.14-1.63-11.47-4.11-15.98-7.44-4.52-3.33-8.07-7.47-10.66-12.43-2.59-4.96-3.96-10.84-4.11-17.65h25.31Z"></path>
    <path d="M660.75,558.97c-1.04-7.1-3.88-12.47-8.55-16.09-4.66-3.62-10.54-5.44-17.65-5.44-3.26,0-6.74.56-10.43,1.67-3.7,1.11-7.1,3.18-10.21,6.22-3.11,3.04-5.7,7.25-7.77,12.65-2.07,5.4-3.11,12.47-3.11,21.2,0,4.74.55,9.47,1.67,14.21,1.11,4.74,2.89,8.96,5.33,12.65,2.44,3.7,5.58,6.7,9.43,8.99,3.85,2.3,8.51,3.44,13.99,3.44,7.4,0,13.5-2.29,18.32-6.88,4.81-4.59,7.8-11.02,8.99-19.31h25.31c-2.37,14.95-8.03,26.38-16.98,34.3-8.96,7.92-20.83,11.88-35.63,11.88-9.03,0-16.98-1.52-23.87-4.55-6.88-3.03-12.69-7.18-17.43-12.43-4.74-5.25-8.33-11.51-10.77-18.76-2.44-7.25-3.66-15.1-3.66-23.53s1.18-16.65,3.55-24.2c2.37-7.55,5.92-14.1,10.66-19.65,4.73-5.55,10.62-9.91,17.65-13.1,7.03-3.18,15.28-4.77,24.75-4.77,6.66,0,12.99.85,18.98,2.55,5.99,1.7,11.32,4.26,15.98,7.66,4.66,3.41,8.47,7.7,11.43,12.88,2.96,5.18,4.73,11.32,5.33,18.43h-25.31Z"></path>
    <path d="M707.37,476.84h25.31v23.98h-25.31v-23.98ZM707.37,520.57h25.31v114.77h-25.31v-114.77Z"></path>
    <path d="M760.21,520.57h23.98v16.87l.44.44c3.85-6.36,8.88-11.36,15.1-14.99,6.22-3.62,13.1-5.44,20.65-5.44,12.58,0,22.5,3.26,29.75,9.77,7.25,6.51,10.88,16.28,10.88,29.3v78.81h-25.31v-72.15c-.3-9.03-2.22-15.57-5.77-19.65-3.55-4.07-9.1-6.11-16.65-6.11-4.29,0-8.14.78-11.54,2.33-3.41,1.55-6.29,3.7-8.66,6.44-2.37,2.74-4.22,5.96-5.55,9.66-1.33,3.7-2,7.62-2,11.77v67.71h-25.31v-114.77Z"></path>
    <path d="M907.39,584.5c0,4.44.63,8.73,1.89,12.88,1.26,4.15,3.14,7.77,5.66,10.88,2.51,3.11,5.7,5.59,9.55,7.44,3.85,1.85,8.44,2.78,13.76,2.78,7.4,0,13.35-1.59,17.87-4.77,4.51-3.18,7.88-7.95,10.1-14.32h23.98c-1.33,6.22-3.63,11.77-6.88,16.65-3.26,4.88-7.18,8.99-11.77,12.32-4.59,3.33-9.73,5.85-15.43,7.55-5.7,1.7-11.66,2.55-17.87,2.55-9.03,0-17.02-1.48-23.98-4.44-6.96-2.96-12.84-7.1-17.65-12.43-4.81-5.33-8.44-11.69-10.88-19.09-2.44-7.4-3.66-15.54-3.66-24.42,0-8.14,1.29-15.87,3.88-23.2,2.59-7.33,6.29-13.76,11.1-19.31,4.81-5.55,10.62-9.95,17.43-13.21,6.81-3.25,14.5-4.88,23.09-4.88,9.03,0,17.13,1.89,24.31,5.66,7.18,3.77,13.13,8.77,17.87,14.98,4.74,6.22,8.18,13.36,10.32,21.42,2.14,8.07,2.7,16.39,1.67,24.98h-84.36ZM966.44,567.85c-.3-4-1.15-7.84-2.55-11.54-1.41-3.7-3.33-6.92-5.77-9.66-2.44-2.74-5.4-4.96-8.88-6.66-3.48-1.7-7.36-2.55-11.65-2.55s-8.47.78-12.1,2.33c-3.63,1.55-6.74,3.7-9.32,6.44-2.59,2.74-4.66,5.96-6.22,9.66-1.55,3.7-2.41,7.7-2.55,11.99h59.05Z"></path>
  </g>
</svg>