<?xml version="1.0" encoding="UTF-8"?>
<svg id="Layer_1" xmlns="http://www.w3.org/2000/svg" version="1.1" viewBox="0 0 1086.7 730.01">
  <!-- Generator: Adobe Illustrator 30.5.1, SVG Export Plug-In . SVG Version: 2.1.4 Build 3)  -->
  <defs>
    <style>
      .st0 {
        fill: #ffb3aa;
      }

      .st1 {
        isolation: isolate;
      }

      .st2 {
        fill: #1c0c0a;
        stroke: #7d130d;
        stroke-width: 3px;
      }

      .st3 {
        fill: none;
        stroke: #ef382f;
        stroke-linecap: round;
        stroke-linejoin: round;
        stroke-width: 22px;
      }

      .st4, .st5 {
        fill: #ef382f;
      }

      .st5 {
        fill-rule: evenodd;
      }

      .st6 {
        fill: #ffe1dc;
      }
    </style>
  </defs>
  <g id="waveform">
    <path class="st3" d="M316.61,221.2c30.56,35.61,95.58,45.46,117.58,48.46,6.6-20.9,13.7-129.7,27.8-114.3s41.8,230.7,57,206.7S538-1.54,553.7,11.36s43.4,400.7,59.5,428c16.2,27.2,21.7-243.8,37.4-264.7s39.2,157.1,56.7,139.3c17.4-17.9,29.1-261.6,48.1-246.2s47,321.5,65.9,338.6,29.5-225.9,47.5-236.1,42.7,164.7,60.3,174.9c17.7,10.2,25.8-102.5,45.5-113.7s55.9,39.2,72.7,46.7,23.7-1.7,28.4-2"/>
  </g>
  <g id="bird">
    <path class="st5" d="M308.04,193.66c-.91-6.25,0-17.2,2-24s3.6-9.89,10-17c21.44-23.83,23.31-21.41,28-26,2.36-2.31-21,2.2-33,7s-24.19,9.8-39,22c-6.04,4.97-4.76,3.15-3.31-.92,2.09-5.88,7.09-12.57,11.6-17.56,5.22-5.78,9.91-9.02,19.71-17.52s22.2-17.7,32-24,22.2-11,27-14,6-3.8,2-4c-8.77-.27-17.53.74-26,3-17.04,4.1-33.75,9.44-50,16-15.5,6.8-35.3,21-43,25s-5.8,3-3-1,11.3-14.7,20-23c8.7-8.3,18.5-17,32-27s34.5-24,49-33,35.2-17.8,38-21-6.2-1.8-21,2c-22.95,6.03-45.64,13.04-68,21-19.3,7.3-33.7,15.2-48,23-13.08,7.33-25.76,15.34-38,24-11.2,7.7-15.3,9.5-29,22s-40.3,39-53,53-17.3,22.2-23,31-11,16.3-11,22,4.5,7.3,11,12,21.47,13.57,28,16c5.72,2.13,3,1.5,11-1s28.5-11.8,37-14,5.7-2.3,14,1,27.3,15,36,19,14.2,3.3,16,5-.7,3.2-5,5-15.8,2.2-21,6-3.7,10.5-10,17-22.3,8.8-28,22-3.5,42.5-6,57c-1.24,10.45-4.29,20.6-9,30-5.89,13.66-13.62,26.45-23,38-10,11.2-30.93,20.9-37,29-1.88,2.5-2.5,4.3,0,19,4.17,23.17,9.17,46.19,15,69,4.8,17.3,6.7,21.5,14,35,8.79,16.09,18.82,31.47,30,46,10.31,12.62,21.69,24.33,34,35,9.37,8.15,19.41,15.51,30,22,10.5,6.8,16.2,11.8,33,19,16.8,7.2,54,19.7,68,24s20,6.2,16,2-29.5-19.2-40-27-15.3-12.5-23-20-15-14.3-23-25-18.2-25.8-25-39c-6.49-12.84-11.84-26.23-16-40-3.12-10.77-5.13-21.82-6-33-1.32-11.28-1.66-22.66-1-34,.61-10.23,2.62-20.32,6-30,3.7-10.8,9.3-24.7,16-35,6.64-10.12,14.72-19.22,24-27,9.2-7.8,19.8-14.8,31-20s24.8-9,36-11,18.5-2.7,31-1,31,6,44,11,23.2,11.7,34,19,26.8,22.8,31,25-1.3-5.5-6-12-10.3-14.8-22-27-38-32.5-48-46-7.91-20.47-12-35-15.66-44-19.16-52c-12.19-34.01-24.61-43.87-34.11-57.64M390.04,412.66c-2.2-1-8.2-3.7-13-5s-7.8-2.5-16-3-24.3-.7-33,0-12.5,1.8-19,4c-6.4,2.13-13.07,5.13-20,9-7,4-17,11.2-22,15s-4.2,3-8,8-10.8,14.5-15,22-7.7,15.8-10,23-3.5,9-4,20-1.3,31,1,46,8.5,32.2,13,44,10.2,20.5,14,27c3.8,6.5,9.3,15.2,9,12s-8.3-22.2-11-31-3.7-14.2-5-22-2.7-16.8-3-25c-.29-14.11,1.05-28.2,4-42,1.97-8.43,4.31-16.77,7-25,2.2-6.2,2.5-6.5,6-12s9.7-14.7,15-21c5.4-6.4,11.07-12.07,17-17,5.54-4.65,11.58-8.67,18-12,14.3-7.55,29.92-12.31,46-14,8.8-.8,24.2.2,29,0s2.2,0,0-1M137.04,316.66c.2-1.7.36-1.19-1-2-4.07-2.43-19.58-8.05-25-10-1.55-.56-2.12-.91-8,0-14.7,2.27-65.8,11-80,14-10.37,3.06-9.3,2.63-5.64,4.46,1.92.96,4.25,2.2,12.64,5.54,8.44,3.36,29.3,10.2,39,13,9.7,2.8,13,3.2,19,4s11.2,1,17,1,13,2.7,18-1,9.7-16.2,12-21,1.8-6.3,2-8M139.04,304.66c-3.8-5.2-15.5-22.2-23-29s-17.5-9.2-22-12-3.8-1.8-5-5-2.11-11.12-2-14,1.7-4.2-2-3c-7.07,2.46-13.79,5.82-20,10-11.56,7.57-22.58,15.92-33,25-9.5,8.7-18.8,20.5-24,27-3.16,3.46-5.54,7.55-7,12-1.66,4.42-1.76,3.8,3,2,6.24-2.35,20.2-7.5,36-11s46.7-8.3,59-10,8.3-1.7,15,0,18.01,6.3,21.85,8.43c3.51,1.95,4.33,2.41,3.15-.43M310.04,275.66c1.3,2.7,5,9.7,6,16s.5,16.3,0,22-1.2,7.3-3,12-5.2,11.5-8,16c-2.54,4.02-5.56,7.72-9,11-3.5,3.5-4.5,5.8-12,10-10.73,5.58-21.74,10.58-33,15-7.5,2.8-10,2.3-12,2s-2.5-2.2,0-4,9.2-3.3,15-7c15.81-9.78,29.42-22.71,40-38,5-7.3,7.8-15.3,10-21s2.3-7.3,3-13,.5-17.5,1-21,.7-2.7,2,0"/>
    <g id="eye">
      <circle class="st2" cx="179.04" cy="259.66" r="20"/>
      <circle class="st6" cx="172.04" cy="252.66" r="6.5"/>
      <circle class="st0" cx="186.04" cy="268.66" r="2.6"/>
    </g>
  </g>
  <g id="wordmark">
    <g class="st1">
      <path class="st4" d="M370.38,473.06c11.84,0,22.46,2.22,31.86,6.66,9.4,4.44,17.35,10.43,23.87,17.98,6.51,7.55,11.51,16.35,14.98,26.42,3.48,10.07,5.22,20.72,5.22,31.97s-1.74,22.13-5.22,32.19c-3.48,10.07-8.47,18.87-14.98,26.42-6.51,7.55-14.47,13.51-23.87,17.87-9.4,4.36-20.02,6.55-31.86,6.55s-22.46-2.19-31.86-6.55c-9.4-4.36-17.35-10.32-23.86-17.87-6.51-7.55-11.51-16.35-14.99-26.42-3.48-10.06-5.22-20.79-5.22-32.19s1.74-21.9,5.22-31.97c3.48-10.06,8.47-18.87,14.99-26.42,6.51-7.55,14.46-13.54,23.86-17.98,9.4-4.44,20.01-6.66,31.86-6.66ZM370.38,495.71c-8.44,0-15.73,1.7-21.87,5.11-6.14,3.41-11.14,7.96-14.99,13.65-3.85,5.7-6.7,12.17-8.55,19.42-1.85,7.25-2.77,14.65-2.77,22.2s.92,14.95,2.77,22.2c1.85,7.25,4.7,13.73,8.55,19.42,3.85,5.7,8.84,10.25,14.99,13.65,6.14,3.41,13.43,5.11,21.87,5.11s15.72-1.7,21.87-5.11c6.14-3.4,11.13-7.95,14.98-13.65,3.85-5.7,6.69-12.17,8.55-19.42,1.85-7.25,2.78-14.65,2.78-22.2s-.93-14.95-2.78-22.2c-1.85-7.25-4.7-13.73-8.55-19.42-3.85-5.7-8.85-10.25-14.98-13.65-6.14-3.4-13.43-5.11-21.87-5.11Z"/>
      <path class="st4" d="M487.15,598.49c.74,7.4,3.55,12.58,8.44,15.54,4.88,2.96,10.73,4.44,17.54,4.44,2.37,0,5.07-.18,8.1-.55,3.03-.37,5.88-1.07,8.55-2.11,2.66-1.03,4.85-2.55,6.55-4.55,1.7-2,2.48-4.62,2.33-7.88-.15-3.25-1.33-5.92-3.55-7.99-2.22-2.07-5.07-3.74-8.55-5-3.48-1.26-7.44-2.33-11.88-3.22s-8.96-1.85-13.54-2.89c-4.74-1.03-9.29-2.29-13.65-3.77-4.37-1.48-8.29-3.48-11.77-5.99-3.48-2.51-6.25-5.73-8.33-9.66-2.07-3.92-3.11-8.77-3.11-14.54,0-6.22,1.52-11.43,4.55-15.65,3.03-4.22,6.88-7.62,11.54-10.21,4.66-2.59,9.84-4.4,15.54-5.44,5.7-1.03,11.13-1.55,16.32-1.55,5.92,0,11.58.63,16.98,1.89,5.4,1.26,10.28,3.3,14.65,6.11,4.36,2.81,7.99,6.48,10.88,10.99,2.89,4.52,4.7,9.96,5.44,16.32h-26.42c-1.19-6.07-3.96-10.14-8.33-12.21-4.37-2.07-9.36-3.11-14.98-3.11-1.78,0-3.89.15-6.33.44-2.44.3-4.74.85-6.88,1.67-2.15.82-3.96,2-5.44,3.55-1.48,1.55-2.22,3.59-2.22,6.11,0,3.11,1.07,5.63,3.22,7.55,2.14,1.92,4.96,3.52,8.44,4.77,3.48,1.26,7.44,2.33,11.88,3.22,4.44.89,9.03,1.85,13.76,2.89,4.59,1.04,9.1,2.3,13.54,3.77,4.44,1.48,8.4,3.48,11.88,5.99,3.48,2.52,6.29,5.7,8.44,9.55,2.14,3.85,3.22,8.59,3.22,14.21,0,6.81-1.55,12.58-4.66,17.32-3.11,4.74-7.14,8.58-12.1,11.54-4.96,2.96-10.47,5.11-16.54,6.44-6.07,1.33-12.06,2-17.98,2-7.25,0-13.95-.82-20.09-2.44-6.14-1.63-11.47-4.11-15.98-7.44-4.52-3.33-8.07-7.47-10.66-12.43-2.59-4.96-3.96-10.84-4.11-17.65h25.31Z"/>
      <path class="st4" d="M660.75,558.97c-1.04-7.1-3.88-12.47-8.55-16.09-4.66-3.62-10.54-5.44-17.65-5.44-3.26,0-6.74.56-10.43,1.67-3.7,1.11-7.1,3.18-10.21,6.22-3.11,3.04-5.7,7.25-7.77,12.65-2.07,5.4-3.11,12.47-3.11,21.2,0,4.74.55,9.47,1.67,14.21,1.11,4.74,2.89,8.96,5.33,12.65,2.44,3.7,5.58,6.7,9.43,8.99,3.85,2.3,8.51,3.44,13.99,3.44,7.4,0,13.5-2.29,18.32-6.88,4.81-4.59,7.8-11.02,8.99-19.31h25.31c-2.37,14.95-8.03,26.38-16.98,34.3-8.96,7.92-20.83,11.88-35.63,11.88-9.03,0-16.98-1.52-23.87-4.55-6.88-3.03-12.69-7.18-17.43-12.43-4.74-5.25-8.33-11.51-10.77-18.76-2.44-7.25-3.66-15.1-3.66-23.53s1.18-16.65,3.55-24.2c2.37-7.55,5.92-14.1,10.66-19.65,4.73-5.55,10.62-9.91,17.65-13.1,7.03-3.18,15.28-4.77,24.75-4.77,6.66,0,12.99.85,18.98,2.55,5.99,1.7,11.32,4.26,15.98,7.66,4.66,3.41,8.47,7.7,11.43,12.88,2.96,5.18,4.73,11.32,5.33,18.43h-25.31Z"/>
      <path class="st4" d="M707.37,476.84h25.31v23.98h-25.31v-23.98ZM707.37,520.57h25.31v114.77h-25.31v-114.77Z"/>
      <path class="st4" d="M760.21,520.57h23.98v16.87l.44.44c3.85-6.36,8.88-11.36,15.1-14.99,6.22-3.62,13.1-5.44,20.65-5.44,12.58,0,22.5,3.26,29.75,9.77,7.25,6.51,10.88,16.28,10.88,29.3v78.81h-25.31v-72.15c-.3-9.03-2.22-15.57-5.77-19.65-3.55-4.07-9.1-6.11-16.65-6.11-4.29,0-8.14.78-11.54,2.33-3.41,1.55-6.29,3.7-8.66,6.44-2.37,2.74-4.22,5.96-5.55,9.66-1.33,3.7-2,7.62-2,11.77v67.71h-25.31v-114.77Z"/>
      <path class="st4" d="M907.39,584.5c0,4.44.63,8.73,1.89,12.88,1.26,4.15,3.14,7.77,5.66,10.88,2.51,3.11,5.7,5.59,9.55,7.44,3.85,1.85,8.44,2.78,13.76,2.78,7.4,0,13.35-1.59,17.87-4.77,4.51-3.18,7.88-7.95,10.1-14.32h23.98c-1.33,6.22-3.63,11.77-6.88,16.65-3.26,4.88-7.18,8.99-11.77,12.32-4.59,3.33-9.73,5.85-15.43,7.55-5.7,1.7-11.66,2.55-17.87,2.55-9.03,0-17.02-1.48-23.98-4.44-6.96-2.96-12.84-7.1-17.65-12.43-4.81-5.33-8.44-11.69-10.88-19.09-2.44-7.4-3.66-15.54-3.66-24.42,0-8.14,1.29-15.87,3.88-23.2,2.59-7.33,6.29-13.76,11.1-19.31,4.81-5.55,10.62-9.95,17.43-13.21,6.81-3.25,14.5-4.88,23.09-4.88,9.03,0,17.13,1.89,24.31,5.66,7.18,3.77,13.13,8.77,17.87,14.98,4.74,6.22,8.18,13.36,10.32,21.42,2.14,8.07,2.7,16.39,1.67,24.98h-84.36ZM966.44,567.85c-.3-4-1.15-7.84-2.55-11.54-1.41-3.7-3.33-6.92-5.77-9.66-2.44-2.74-5.4-4.96-8.88-6.66-3.48-1.7-7.36-2.55-11.65-2.55s-8.47.78-12.1,2.33c-3.63,1.55-6.74,3.7-9.32,6.44-2.59,2.74-4.66,5.96-6.22,9.66-1.55,3.7-2.41,7.7-2.55,11.99h59.05Z"/>
    </g>
  </g>
</svg>